<svg width="1146" height="820" viewBox="0 0 1146 820" fill="none" xmlns="http://www.w3.org/2000/svg">
<g clip-path="url(#clip0)">
<path opacity="0.1" d="M1127.43 551.22C1100.86 606.03 1046.91 642.68 991 666.85C915.73 699.4 832.84 712.31 751.09 706.85C736.763 705.897 722.48 704.373 708.24 702.28C658.784 695.065 610.568 681.025 564.97 660.56C551.81 654.633 538.917 648.163 526.29 641.15C505.2 629.461 484.993 616.245 465.83 601.61C461.01 597.93 456.257 594.157 451.57 590.29C448.32 587.61 445.1 584.87 441.83 582.21C434.93 576.6 427.83 571.27 419.91 567.28C417.52 566.075 415.07 564.994 412.57 564.04C387.49 554.5 358.57 558.1 332.46 565.54C312.6 571.2 293.24 578.95 273.4 584.48C264.575 587.015 255.583 588.926 246.49 590.2C226.189 592.77 205.572 590.959 186.03 584.89L184.36 584.37C181.56 583.49 178.783 582.527 176.03 581.48L174.36 580.84C171.693 579.813 169.083 578.71 166.53 577.53L164.86 576.77C162.193 575.53 159.583 574.22 157.03 572.84C156.11 572.36 155.2 571.84 154.3 571.35C139.773 563.236 126.568 552.955 115.14 540.86C114.81 540.53 114.5 540.19 114.14 539.86C112.55 538.14 110.99 536.39 109.48 534.6C108.92 533.94 108.36 533.28 107.81 532.6C106.017 530.413 104.287 528.177 102.62 525.89C102.37 525.56 102.13 525.22 101.89 524.89C95.0615 515.443 89.4004 505.206 85.03 494.4C84.89 494.07 84.76 493.73 84.64 493.4C83.3066 489.967 82.09 486.477 80.99 482.93C80.54 481.45 80.11 479.93 79.73 478.45C79.6 478.01 79.48 477.56 79.37 477.12C73.85 455.39 73.22 432.8 73.22 410.34C73.22 407.72 73.22 405.103 73.22 402.49C73.38 366.16 73.94 329.21 79.3 293.38C79.3 293.13 79.37 292.88 79.41 292.64C81.2039 280.578 83.6441 268.621 86.72 256.82C89.9392 244.438 94.0533 232.306 99.03 220.52C111.36 191.52 129.29 165.13 149.2 140.67C199.35 79.12 265.12 27.45 342.1 8.11001C425.05 -12.72 517.24 7.24001 584.15 60.51C604.55 76.75 622.88 95.98 645.79 108.43C665.79 119.27 689.2 123.76 710.62 115.23C728.32 108.18 739.84 104.68 759.72 105.75C800.876 108.078 841.449 116.576 880.08 130.96C881.64 131.53 883.2 132.12 884.75 132.71C985.46 171.24 1072.03 247.79 1117.03 346.16C1118.22 348.76 1119.38 351.38 1120.5 354.02C1147.33 416.69 1157.03 490.14 1127.43 551.22Z" fill="#6C63FF"/>
<path opacity="0.1" d="M120.3 742.99C169.056 742.99 208.58 736.641 208.58 728.81C208.58 720.978 169.056 714.63 120.3 714.63C71.5443 714.63 32.02 720.978 32.02 728.81C32.02 736.641 71.5443 742.99 120.3 742.99Z" fill="#6C63FF"/>
<path opacity="0.1" d="M912.26 819.91C998.709 819.91 1068.79 813.105 1068.79 804.71C1068.79 796.315 998.709 789.51 912.26 789.51C825.811 789.51 755.73 796.315 755.73 804.71C755.73 813.105 825.811 819.91 912.26 819.91Z" fill="#6C63FF"/>
<path d="M1053.98 107.75H128.63C121.732 107.75 116.14 113.342 116.14 120.24V633.59C116.14 640.488 121.732 646.08 128.63 646.08H1053.98C1060.88 646.08 1066.47 640.488 1066.47 633.59V120.24C1066.47 113.342 1060.88 107.75 1053.98 107.75Z" fill="url(#paint0_linear)"/>
<path d="M1052.58 115.32H130.14C123.242 115.32 117.65 120.912 117.65 127.81V631.8C117.65 638.698 123.242 644.29 130.14 644.29H1052.58C1059.48 644.29 1065.07 638.698 1065.07 631.8V127.81C1065.07 120.912 1059.48 115.32 1052.58 115.32Z" fill="white"/>
<path d="M1052.58 115.32H130.14C123.242 115.32 117.65 120.912 117.65 127.81V631.8C117.65 638.698 123.242 644.29 130.14 644.29H1052.58C1059.48 644.29 1065.07 638.698 1065.07 631.8V127.81C1065.07 120.912 1059.48 115.32 1052.58 115.32Z" fill="white"/>
<path opacity="0.04" d="M1052.58 115.32H130.14C123.242 115.32 117.65 120.912 117.65 127.81V631.8C117.65 638.698 123.242 644.29 130.14 644.29H1052.58C1059.48 644.29 1065.07 638.698 1065.07 631.8V127.81C1065.07 120.912 1059.48 115.32 1052.58 115.32Z" fill="white"/>
<path d="M1060.26 109.25H122.46C121.184 109.25 119.961 109.757 119.059 110.659C118.157 111.561 117.65 112.784 117.65 114.06V134.39H1065.03V114.06C1065.03 112.791 1064.53 111.574 1063.64 110.673C1062.74 109.772 1061.53 109.261 1060.26 109.25Z" fill="#5A5773"/>
<path d="M136.57 128.32C140.16 128.32 143.07 125.41 143.07 121.82C143.07 118.23 140.16 115.32 136.57 115.32C132.98 115.32 130.07 118.23 130.07 121.82C130.07 125.41 132.98 128.32 136.57 128.32Z" fill="white"/>
<path d="M154.07 128.32C157.66 128.32 160.57 125.41 160.57 121.82C160.57 118.23 157.66 115.32 154.07 115.32C150.48 115.32 147.57 118.23 147.57 121.82C147.57 125.41 150.48 128.32 154.07 128.32Z" fill="white"/>
<path d="M171.57 128.32C175.16 128.32 178.07 125.41 178.07 121.82C178.07 118.23 175.16 115.32 171.57 115.32C167.98 115.32 165.07 118.23 165.07 121.82C165.07 125.41 167.98 128.32 171.57 128.32Z" fill="white"/>
<path opacity="0.2" d="M449.93 181.67H195.68V203.25H449.93V181.67Z" fill="#6C63FF"/>
<path opacity="0.1" d="M987.36 268H196V599.96H987.36V268Z" fill="#5A5773"/>
<path opacity="0.1" d="M659.03 289.85H645.48V263.53C645.48 233.83 621.8 209.14 592.1 208.69C584.938 208.615 577.833 209.958 571.192 212.641C564.552 215.325 558.508 219.296 553.41 224.325C548.311 229.355 544.258 235.344 541.485 241.948C538.711 248.551 537.272 255.638 537.25 262.8V289.85H523.73C517.755 289.868 512.03 292.25 507.805 296.475C503.58 300.7 501.199 306.425 501.18 312.4V420.62C501.199 426.595 503.58 432.32 507.805 436.545C512.03 440.77 517.755 443.152 523.73 443.17H659.03C665.004 443.152 670.728 440.769 674.951 436.544C679.175 432.319 681.554 426.594 681.57 420.62V312.4C681.554 306.426 679.175 300.701 674.951 296.476C670.728 292.251 665.004 289.869 659.03 289.85ZM599.28 360.2V398.96C599.293 401.012 598.526 402.993 597.133 404.501C595.74 406.008 593.827 406.93 591.78 407.08C590.711 407.13 589.644 406.963 588.642 406.588C587.639 406.214 586.724 405.64 585.95 404.902C585.176 404.163 584.559 403.275 584.138 402.292C583.717 401.308 583.5 400.25 583.5 399.18V360.18C579.842 358.396 576.896 355.425 575.144 351.751C573.391 348.077 572.936 343.918 573.851 339.953C574.767 335.987 576.999 332.448 580.185 329.915C583.37 327.381 587.32 326.001 591.39 326.001C595.46 326.001 599.41 327.381 602.595 329.915C605.781 332.448 608.013 335.987 608.929 339.953C609.844 343.918 609.389 348.077 607.636 351.751C605.884 355.425 602.938 358.396 599.28 360.18V360.2ZM629.72 289.85H553.03V262.8C553.03 252.634 557.068 242.885 564.257 235.697C571.445 228.508 581.194 224.47 591.36 224.47C601.526 224.47 611.275 228.508 618.463 235.697C625.652 242.885 629.69 252.634 629.69 262.8L629.72 289.85Z" fill="black"/>
<path d="M659.03 287.85H645.48V261.53C645.48 231.83 621.8 207.14 592.1 206.69C584.938 206.615 577.833 207.958 571.192 210.641C564.552 213.325 558.508 217.296 553.41 222.325C548.311 227.355 544.258 233.344 541.485 239.948C538.711 246.551 537.272 253.638 537.25 260.8V287.85H523.73C517.755 287.868 512.03 290.25 507.805 294.475C503.58 298.7 501.199 304.425 501.18 310.4V418.62C501.199 424.595 503.58 430.32 507.805 434.545C512.03 438.77 517.755 441.152 523.73 441.17H659.03C665.004 441.152 670.728 438.769 674.951 434.544C679.175 430.319 681.554 424.594 681.57 418.62V310.4C681.554 304.426 679.175 298.701 674.951 294.476C670.728 290.251 665.004 287.869 659.03 287.85V287.85ZM599.28 358.2V396.96C599.293 399.012 598.526 400.993 597.133 402.501C595.74 404.008 593.827 404.93 591.78 405.08C590.711 405.13 589.644 404.963 588.642 404.588C587.639 404.214 586.724 403.64 585.95 402.902C585.176 402.163 584.559 401.275 584.138 400.292C583.717 399.308 583.5 398.25 583.5 397.18V358.18C579.842 356.396 576.896 353.425 575.144 349.751C573.391 346.077 572.936 341.918 573.851 337.953C574.767 333.987 576.999 330.448 580.185 327.915C583.37 325.381 587.32 324.001 591.39 324.001C595.46 324.001 599.41 325.381 602.595 327.915C605.781 330.448 608.013 333.987 608.929 337.953C609.844 341.918 609.389 346.077 607.636 349.751C605.884 353.425 602.938 356.396 599.28 358.18V358.2ZM629.72 287.85H553.03V260.8C553.03 250.634 557.068 240.885 564.257 233.697C571.445 226.508 581.194 222.47 591.36 222.47C601.526 222.47 611.275 226.508 618.463 233.697C625.652 240.885 629.69 250.634 629.69 260.8L629.72 287.85Z" fill="#6C63FF"/>
<path opacity="0.1" d="M987.04 236.25H906.94V255.16H987.04V236.25Z" fill="#5A5773"/>
<path d="M1014.3 809.29C1013.77 806.639 1012.87 804.077 1011.62 801.68L999.62 783.76H999.69C999.69 783.76 997.8 774.76 999.69 770.34C1001.58 765.92 992.95 755.05 992.95 755.05C992.95 755.05 991.9 752.32 994.64 748.96C997.38 745.6 992.95 735.76 992.95 735.76C992.95 735.76 990.85 715.21 990.64 712.07C990.43 708.93 988.74 691.53 988.74 691.53L984.74 654.64L977.62 556.87L977.49 555.04C978.37 554.61 978.84 554.34 978.84 554.34L977.42 500.28L978.65 499.17C989.39 489.45 1014.16 466.95 1013.91 466.46C1013.66 465.97 1010.91 428.89 1010.59 419.61C1010.32 413.015 1008.87 406.521 1006.33 400.43C1005.71 399.2 1003.92 391.09 1003.18 387.66C1002.98 386.72 1002.85 386.13 1002.85 386.13C1002.85 386.13 995.59 372.29 996.22 366C996.85 359.71 998.11 355 982.63 352.8C982.63 352.8 969.63 350.86 961.89 345.57C957.313 342.401 952.31 339.896 947.03 338.13C947.03 338.13 942.69 330.13 939.67 332.84C938.391 329.985 937.435 326.997 936.82 323.93L936.73 323.37C942.463 319.373 946.588 313.468 948.37 306.71C948.47 306.33 948.55 305.94 948.64 305.56C948.94 305.662 949.253 305.719 949.57 305.73C952.2 305.73 953.82 302.8 956.28 301.87C957.28 301.48 958.51 301.42 959.28 300.63C959.534 300.325 959.723 299.973 959.837 299.593C959.95 299.213 959.985 298.814 959.94 298.42C959.965 298.147 959.965 297.873 959.94 297.6C959.945 297.503 959.945 297.407 959.94 297.31V297.41C959.27 293.77 956.45 290.54 956.76 286.84C957.06 283.36 960.12 280.3 959.87 276.91C959.867 276.642 959.843 276.375 959.8 276.11V276.23C959.427 274.906 958.741 273.692 957.8 272.69C956.724 271.223 955.311 270.037 953.68 269.23C952.29 268.62 950.68 268.48 949.38 267.75C945.56 265.67 945.57 260.25 943.3 256.55C942.327 255.005 940.947 253.759 939.311 252.95C937.676 252.14 935.848 251.797 934.03 251.96C931.19 252.24 928.62 253.75 925.81 254.24C921.97 254.92 918.06 253.67 914.42 252.24C910.78 250.81 907.09 249.24 903.18 249.24C899.27 249.24 895.04 251.24 893.86 254.93C893.23 256.93 893.54 259.08 893.06 261.11C892.2 264.69 889.06 267.25 885.81 269.03C883.81 270.14 881.43 271.41 880.81 273.51C880.81 273.45 880.81 273.4 880.81 273.35C880.765 273.518 880.732 273.688 880.71 273.86C880.69 274.083 880.69 274.307 880.71 274.53C880.71 275.97 881.47 277.34 881.98 278.71C882.93 281.316 882.909 284.178 881.92 286.77C881.18 288.67 879.92 290.34 879.2 292.23C878.861 293.11 878.639 294.032 878.54 294.97V294.81C878.515 295.236 878.515 295.664 878.54 296.09C878.528 297.55 878.871 298.992 879.54 300.29C879.999 301.186 880.632 301.982 881.404 302.629C882.175 303.277 883.068 303.763 884.03 304.06C886.03 304.52 887.28 302.56 889.39 303.06C889.768 303.151 890.139 303.268 890.5 303.41C890.57 303.86 890.64 304.31 890.72 304.75C891.996 311.48 895.582 317.553 900.86 321.92C900.86 322.16 900.94 322.4 900.97 322.65C901.609 326.637 901.887 330.673 901.8 334.71C901.8 334.71 898.65 330.1 894.33 339C894.33 339 883.06 345.5 879.17 346.24C875.28 346.98 861.47 351.79 861.47 351.79C859.387 353.296 856.881 354.105 854.31 354.1C850 354.1 846.42 363.53 846.94 368.66C847.46 373.79 846.63 377.57 842.62 377.78C838.61 377.99 840.8 386.12 840.83 386.26L840.46 388.01C839.68 391.59 837.98 399.27 837.38 400.47C834.837 406.562 833.392 413.055 833.11 419.65C832.8 428.93 830.11 465.87 829.8 466.5C829.59 466.91 846.56 482.42 858.49 493.26L860.22 494.82L854.73 546.1C854.89 548.076 855.477 549.993 856.451 551.72C857.425 553.446 858.762 554.941 860.37 556.1C860.37 556.7 860.37 557.31 860.31 557.94C860.07 563.94 859.59 571.2 858.63 573.1C856.95 576.46 857.37 594.48 857.37 594.48C857.37 594.48 855.68 631.16 853.58 635.15C851.48 639.14 851.05 647.51 851.68 649.15C852.31 650.79 849.57 694.84 849.57 694.84L847.47 714.55C847.47 714.55 848.1 733.41 846.2 733.83C844.3 734.25 843.25 747.25 843.25 747.25C843.25 747.25 836.52 756.47 839.46 759.82C842.4 763.17 839.03 764.65 838.72 765.48C838.41 766.31 832.3 769.48 836.72 781.2C836.761 781.316 836.807 781.429 836.86 781.54C832.72 787.29 819.6 805.84 820.4 808.66C820.991 810.454 822.242 811.956 823.9 812.86C826.99 814.71 832.29 815.57 840.72 812.86C854.72 808.35 853.72 805.1 853.72 805.1C853.792 803.581 854.444 802.146 855.541 801.093C856.639 800.04 858.099 799.448 859.62 799.44C865.41 799.02 869.73 793.68 869.73 793.68L869.05 791.15L868.12 787.65C868.23 786.65 868.94 784.9 872.12 783.93C876.97 782.46 875.7 773.24 875.7 773.24C875.7 773.24 875.28 763.6 877.38 762.34C879.48 761.08 878.65 745.15 878.65 745.15C878.65 745.15 880.97 733.62 884.33 725.86C887.69 718.1 891.71 672 891.71 672C891.71 672 894.44 649.36 896.97 642.86C899.5 636.36 901.82 618.13 901.82 618.13C901.82 618.13 917.41 587.94 917.61 581.23C917.61 581.23 919.61 574.94 921.61 581.86C923.61 588.78 929.23 605.34 929.23 605.34L934.7 625.67L941.23 656.06L945.45 681.64C945.45 681.64 944.81 691.28 946.45 694.64C948.09 698 950.45 705.74 949.19 707.21C947.93 708.68 951.71 715.6 952.77 717.06C953.83 718.52 952.77 749.55 952.77 749.55C952.77 749.55 957.61 775.96 964.56 780.55C965.045 780.869 965.561 781.137 966.1 781.35C966 784.21 965.9 788.04 966.03 790.04C966.015 790.487 966.089 790.933 966.25 791.35C966.88 792.19 974.04 797.85 975.52 797.85C977 797.85 982.25 801.52 982.47 803.3C982.69 805.08 997.86 812.62 1000.01 812.84C1002.16 813.06 1012.58 814.93 1014.01 812C1014.36 811.143 1014.46 810.203 1014.3 809.29ZM977.03 431.57L978.11 432.5C978.11 432.5 979.22 441.15 980.01 443.74C980.8 446.33 979.85 451.37 979.85 451.37C979.923 453.251 980.297 455.108 980.96 456.87C981.9 458.76 979.06 462.87 979.06 462.87H976.53L975.74 430.49L977.03 431.57ZM901.8 334.89V334.7C901.78 334.76 901.77 334.83 901.77 334.89H901.8ZM862.95 459.54C862.561 458.702 862.504 457.748 862.79 456.87C863.015 456.395 863.192 455.9 863.32 455.39C863.631 454.076 863.825 452.738 863.9 451.39C863.902 451.373 863.902 451.357 863.9 451.34C863.81 450.86 863 446.22 863.75 443.76C864.5 441.3 865.64 432.52 865.64 432.52L866.36 431.91L868.03 430.46C868.03 430.46 868.03 429.92 868.15 429.03C868.5 436.63 868.78 445.03 868.33 445.45C867.49 446.28 864.43 454.45 865.17 454.77C865.41 454.88 865.08 458.15 864.52 462.55C863.891 461.605 863.365 460.596 862.95 459.54V459.54Z" fill="url(#paint1_linear)"/>
<path d="M943.55 342.88V355.32L918.03 368.15C918.03 368.15 892.69 352.82 898.94 346.72C902.94 342.86 902.17 332.26 901.09 324.97C900.46 320.73 899.73 317.62 899.73 317.62C899.73 317.62 945.25 304.62 938.37 314.49C936.07 317.79 935.89 322.06 936.66 326.29C938.22 334.68 943.55 342.88 943.55 342.88Z" fill="#C37098"/>
<path d="M873.64 464.53L870.35 505.05C870.35 505.05 865.42 500.58 859.04 494.76C847.21 483.97 830.41 468.54 830.61 468.13C830.92 467.5 833.61 430.74 833.9 421.5C834.173 414.941 835.602 408.482 838.12 402.42C838.72 401.22 840.41 393.58 841.12 390.01C841.36 388.9 841.51 388.18 841.51 388.18L847.03 385.96C847.03 385.96 870.03 411.62 870.03 412.09C870.03 412.56 868.46 432.27 868.46 432.27L866.83 433.69L866.12 434.3C866.12 434.3 865.02 442.91 864.24 445.49C863.46 448.07 864.3 452.55 864.39 453.03C864.316 454.377 864.126 455.716 863.82 457.03C863.69 457.535 863.512 458.028 863.29 458.5C863.008 459.375 863.065 460.325 863.45 461.16C863.894 462.319 864.472 463.423 865.17 464.45L873.64 464.53Z" fill="#3F3D56"/>
<path d="M1013.03 468.13C1013.27 468.62 988.74 491.01 978.11 500.68L973.29 505.05L970.03 464.53H978.48C978.48 464.53 981.3 460.46 980.36 458.58C979.705 456.827 979.337 454.98 979.27 453.11C979.27 453.11 980.2 448.11 979.42 445.52C978.64 442.93 977.54 434.33 977.54 434.33L976.47 433.41L975.2 432.3C975.2 432.3 973.63 412.59 973.63 412.12C973.63 411.65 996.63 385.99 996.63 385.99L1002.11 388.18C1002.11 388.18 1002.23 388.77 1002.43 389.71C1003.17 393.12 1004.94 401.19 1005.55 402.42C1008.07 408.482 1009.5 414.941 1009.77 421.5C1010.03 430.74 1012.71 467.5 1013.03 468.13Z" fill="#3F3D56"/>
<path d="M1013.13 812.07C1011.66 814.99 1001.34 813.07 999.21 812.91C997.08 812.75 982.04 805.18 981.83 803.41C981.62 801.64 976.41 797.99 974.95 797.99C973.49 797.99 966.4 792.35 965.77 791.52C965.61 791.106 965.539 790.663 965.56 790.22C965.34 786.79 965.77 777.96 965.77 777.96L996.02 779.63L1010.72 801.74C1011.96 804.125 1012.85 806.674 1013.38 809.31C1013.56 810.235 1013.47 811.192 1013.13 812.07V812.07Z" fill="#3F3D56"/>
<path opacity="0.1" d="M1013.13 812.07C1011.66 814.99 1001.34 813.07 999.21 812.91C997.08 812.75 982.04 805.18 981.83 803.41C981.62 801.64 976.41 797.99 974.95 797.99C973.49 797.99 966.4 792.35 965.77 791.52C965.61 791.106 965.539 790.663 965.56 790.22C965.34 786.79 965.77 777.96 965.77 777.96L996.02 779.63L1010.72 801.74C1011.96 804.125 1012.85 806.674 1013.38 809.31C1013.56 810.235 1013.47 811.192 1013.13 812.07V812.07Z" fill="black"/>
<path opacity="0.1" d="M1013.13 812.07C1011.66 814.99 1001.34 813.07 999.21 812.91C997.08 812.75 982.04 805.18 981.83 803.41C981.62 801.64 976.41 797.99 974.95 797.99C973.49 797.99 966.4 792.35 965.77 791.52C965.61 791.106 965.539 790.663 965.56 790.22L975.36 796.42C975.36 796.42 981.62 800.42 983.29 802.79C984.96 805.16 998.12 810.09 999.21 810.19C1000.02 810.27 1008.66 808.61 1013.38 809.31C1013.56 810.235 1013.47 811.192 1013.13 812.07V812.07Z" fill="black"/>
<path d="M870.13 793.82C870.13 793.82 865.85 799.14 860.13 799.55C858.621 799.561 857.173 800.152 856.086 801.199C855 802.247 854.357 803.672 854.29 805.18C854.29 805.18 855.29 808.42 841.46 812.91C833.11 815.6 827.86 814.75 824.8 812.91C823.158 812.004 821.918 810.511 821.33 808.73C820.39 805.4 838.85 780.05 838.85 780.05L855.65 779.05L867.65 784.47L869.49 791.34L870.13 793.82Z" fill="#3F3D56"/>
<path opacity="0.1" d="M870.13 793.82C870.13 793.82 865.85 799.14 860.13 799.55C858.621 799.561 857.173 800.152 856.086 801.199C855 802.247 854.357 803.672 854.29 805.18C854.29 805.18 855.29 808.42 841.46 812.91C833.11 815.6 827.86 814.75 824.8 812.91C823.158 812.004 821.918 810.511 821.33 808.73C820.39 805.4 838.85 780.05 838.85 780.05L855.65 779.05L867.65 784.47L869.49 791.34L870.13 793.82Z" fill="black"/>
<path opacity="0.1" d="M870.13 793.82C870.13 793.82 865.85 799.14 860.13 799.55C858.621 799.561 857.173 800.152 856.086 801.199C855 802.247 854.357 803.672 854.29 805.18C854.29 805.18 855.29 808.42 841.46 812.91C833.11 815.6 827.86 814.75 824.8 812.91C832.67 812.09 850.06 807.12 851.8 805.4C853.89 803.31 856.5 797.57 858.27 797.47C859.5 797.39 865.75 793.63 869.5 791.3L870.13 793.82Z" fill="black"/>
<path d="M998.94 770.56C997.06 774.94 998.94 783.91 998.94 783.91C998.94 783.91 970.94 785.37 964.1 780.78C957.26 776.19 952.42 749.9 952.42 749.9C952.42 749.9 953.42 719.03 952.42 717.57C951.42 716.11 947.62 709.23 948.87 707.77C950.12 706.31 947.87 698.59 946.16 695.25C944.45 691.91 945.16 682.32 945.16 682.32L940.98 656.86L934.52 626.62L929.03 606.38C929.03 606.38 923.4 589.9 921.49 583.02C919.58 576.14 917.56 582.39 917.56 582.39C917.36 589.07 901.92 619.11 901.92 619.11C901.92 619.11 899.62 637.26 897.12 643.72C894.62 650.18 891.9 672.72 891.9 672.72C891.9 672.72 887.9 718.61 884.6 726.33C881.3 734.05 879.03 745.52 879.03 745.52C879.03 745.52 879.87 761.38 877.78 762.63C875.69 763.88 876.03 773.48 876.03 773.48C876.03 773.48 877.28 782.65 872.48 784.12C867.68 785.59 868.48 788.71 868.48 788.71C868.48 788.71 841.78 793.09 837.4 781.4C833.02 769.71 839.07 766.6 839.4 765.76C839.73 764.92 843.06 763.47 840.14 760.12C837.22 756.77 843.89 747.61 843.89 747.61C843.89 747.61 844.94 734.68 846.81 734.26C848.68 733.84 848.07 715.07 848.07 715.07L850.15 695.46C850.15 695.46 852.87 651.65 852.24 649.98C851.61 648.31 852.03 639.98 854.12 635.98C856.21 631.98 857.87 595.5 857.87 595.5C857.87 595.5 857.45 577.57 859.12 574.23C860.12 572.34 860.54 565.07 860.78 559.14C860.96 554.61 861 550.86 861 550.86L884.36 542.1L914.36 532.51L939.6 544.61L976.53 551.7L976.99 558.07L984.04 655.38L988.04 692.09C988.04 692.09 989.71 709.4 989.92 712.53C990.13 715.66 992.21 736.11 992.21 736.11C992.21 736.11 996.59 745.91 993.88 749.25C991.17 752.59 992.21 755.25 992.21 755.25C992.21 755.25 1000.82 766.18 998.94 770.56Z" fill="#3F3D56"/>
<path opacity="0.1" d="M938.39 314.49C936.09 317.79 935.91 322.06 936.68 326.29C931.425 329.997 925.097 331.875 918.67 331.635C912.243 331.395 906.074 329.049 901.11 324.96V324.96C900.48 320.72 899.75 317.61 899.75 317.61C899.75 317.61 945.27 304.63 938.39 314.49Z" fill="black"/>
<path d="M949.03 301.73C949.03 307.525 947.312 313.19 944.092 318.008C940.873 322.827 936.297 326.582 930.943 328.8C925.589 331.017 919.698 331.598 914.014 330.467C908.33 329.336 903.109 326.546 899.012 322.448C894.914 318.351 892.124 313.13 890.993 307.446C889.863 301.763 890.443 295.871 892.66 290.517C894.878 285.164 898.634 280.587 903.452 277.368C908.27 274.148 913.935 272.43 919.73 272.43C923.583 272.411 927.401 273.157 930.965 274.623C934.528 276.088 937.765 278.246 940.49 280.97C943.214 283.695 945.372 286.932 946.837 290.495C948.303 294.059 949.049 297.877 949.03 301.73Z" fill="#C37098"/>
<path opacity="0.1" d="M955.13 350.42L945.53 521.37L893.38 510.42L883.05 441.89L893.28 349.89L900.98 350.88L914.56 352.61L928.01 353.44L942.59 351.82L955.13 350.42Z" fill="black"/>
<path d="M955.13 351.67L945.53 522.62L893.38 511.67L883.05 443.14L893.28 351.15L900.98 352.13L914.56 353.86L928.01 354.69L942.59 353.07L955.13 351.67Z" fill="#6C63FF"/>
<path d="M912.26 356.26L931.04 356.89L925.76 364.28C925.76 364.28 926.13 379.21 928.64 383.49C931.15 387.77 930.41 453.89 930.41 453.89L925.41 463.38L916.86 452.74L916.97 365.44L912.26 356.26Z" fill="#3F3D56"/>
<path opacity="0.1" d="M912.26 356.26L931.04 356.89L925.76 364.28C925.76 364.28 926.13 379.21 928.64 383.49C931.15 387.77 930.41 453.89 930.41 453.89L925.41 463.38L916.86 452.74L916.97 365.44L912.26 356.26Z" fill="black"/>
<path opacity="0.1" d="M941.67 336.86L924.15 356.26L934.16 366.69L950.75 350.52L941.67 336.86Z" fill="black"/>
<path d="M941.67 335.61L924.15 355.01L934.16 365.44L950.75 349.27L941.67 335.61Z" fill="#6C63FF"/>
<path opacity="0.1" d="M916.75 355.32L899.01 337.59L897.34 346.87L905.48 367.21L916.75 355.32Z" fill="black"/>
<path d="M917.37 354.07L899.64 336.34L897.97 345.62L906.11 365.96L917.37 354.07Z" fill="#6C63FF"/>
<path opacity="0.1" d="M977.08 558.1C968.566 562.157 959.445 564.795 950.08 565.91C932.87 568.1 921.61 546.2 921.61 546.2L915.04 554.75C912.95 563.83 881.14 566.12 868.21 562.68C865.527 562.017 863.004 560.824 860.79 559.17C860.97 554.64 861.01 550.89 861.01 550.89L884.37 542.13L914.37 532.54L939.61 544.64L976.54 551.73L977.08 558.1Z" fill="black"/>
<path opacity="0.1" d="M955.13 351.68L945.54 522.62L893.38 511.67L883.03 443.15L893.25 351.15L900.95 352.15C900.753 355.501 900.376 358.839 899.82 362.15C898.57 368 906.29 409.51 906.29 409.51C906.29 409.51 920.96 456.06 927.56 449.35C934.16 442.64 943.56 407.21 943.56 407.21C949.93 394.07 943.67 357.21 943.2 356.47C942.873 355.38 942.671 354.256 942.6 353.12L955.13 351.68Z" fill="black"/>
<path opacity="0.1" d="M977.66 483.96L978.1 500.71L973.28 505.08L970.03 464.53H977.23L977.66 483.96Z" fill="black"/>
<path opacity="0.1" d="M864.4 453.06C864.326 454.407 864.136 455.746 863.83 457.06C863.83 456.69 863.83 456.48 863.75 456.45C863.45 456.37 863.81 454.84 864.4 453.06Z" fill="black"/>
<path opacity="0.1" d="M873.64 464.53L870.35 505.05C870.35 505.05 865.42 500.58 859.04 494.76L859.8 487.58C859.8 487.58 862.49 469.94 863.47 461.24C863.914 462.399 864.492 463.503 865.19 464.53H873.64Z" fill="black"/>
<path d="M901.93 336.96C901.93 336.96 898.81 332.37 894.53 341.23C894.53 341.23 883.37 347.7 879.53 348.43C875.69 349.16 862.03 353.96 862.03 353.96C859.967 355.451 857.486 356.253 854.94 356.25C850.66 356.25 847.11 365.64 847.63 370.75C848.15 375.86 847.32 379.62 843.36 379.83C839.4 380.04 841.58 388.27 841.58 388.27L867.97 418.52C867.97 418.52 869.64 446.37 868.81 447.21C867.98 448.05 864.95 456.21 865.68 456.49C866.41 456.77 861.68 487.57 861.68 487.57L855.32 547.34C855.32 547.34 855.32 557.34 868.26 560.79C881.2 564.24 913.03 561.96 915.08 552.88L921.65 544.32C921.65 544.32 932.91 566.23 950.12 564.04C967.33 561.85 978.29 555.59 978.29 555.59L976.41 483.96L975.16 432.33L1002.03 388.18C1002.03 388.18 994.83 374.41 995.46 368.18C996.09 361.95 997.33 357.23 982 355.04C982 355.04 969.07 353.11 961.45 347.84C956.922 344.696 951.973 342.205 946.75 340.44C946.75 340.44 942.45 332.44 939.46 335.18C939.46 335.18 942.46 346.49 942.21 348.18C941.96 349.87 942.68 357.51 943.15 358.3C943.62 359.09 949.88 395.9 943.51 409.04C943.51 409.04 934.16 444.47 927.51 451.18C920.86 457.89 906.24 411.34 906.24 411.34C906.24 411.34 898.52 369.82 899.77 363.98C901.02 358.14 901.93 336.96 901.93 336.96Z" fill="#3F3D56"/>
<path d="M924.25 473.71C926.785 473.71 928.84 471.655 928.84 469.12C928.84 466.585 926.785 464.53 924.25 464.53C921.715 464.53 919.66 466.585 919.66 469.12C919.66 471.655 921.715 473.71 924.25 473.71Z" fill="#3F3D56"/>
<path d="M924.25 495.35C926.785 495.35 928.84 493.295 928.84 490.76C928.84 488.225 926.785 486.17 924.25 486.17C921.715 486.17 919.66 488.225 919.66 490.76C919.66 493.295 921.715 495.35 924.25 495.35Z" fill="#3F3D56"/>
<path opacity="0.1" d="M924.25 473.71C926.785 473.71 928.84 471.655 928.84 469.12C928.84 466.585 926.785 464.53 924.25 464.53C921.715 464.53 919.66 466.585 919.66 469.12C919.66 471.655 921.715 473.71 924.25 473.71Z" fill="black"/>
<path opacity="0.1" d="M924.25 495.35C926.785 495.35 928.84 493.295 928.84 490.76C928.84 488.225 926.785 486.17 924.25 486.17C921.715 486.17 919.66 488.225 919.66 490.76C919.66 493.295 921.715 495.35 924.25 495.35Z" fill="black"/>
<path opacity="0.1" d="M965.5 764.3C965.5 764.3 984.34 765.76 986.21 767.22C988.08 768.68 965.5 764.3 965.5 764.3Z" fill="black" stroke="#6C63FF" stroke-miterlimit="10"/>
<path opacity="0.1" d="M853.33 749.49C853.33 749.49 857.33 754.49 855.63 756.79C853.93 759.09 853.33 749.49 853.33 749.49Z" fill="black" stroke="#6C63FF" stroke-miterlimit="10"/>
<path opacity="0.1" d="M858.13 767.52C858.13 767.52 865.43 762.72 868.35 765.91C871.27 769.1 858.13 767.52 858.13 767.52Z" fill="black" stroke="#6C63FF" stroke-miterlimit="10"/>
<path opacity="0.1" d="M949.03 301.73C949.036 304.23 948.72 306.72 948.09 309.14C947.473 308.859 946.957 308.396 946.61 307.813C946.264 307.231 946.103 306.556 946.15 305.88C946.28 304.69 947.07 303.6 946.9 302.42C946.65 300.6 944.45 299.86 943.29 298.42C941.86 296.68 942.17 294.15 942.29 291.9C942.41 289.65 941.84 286.9 939.73 286.13C939.1 285.9 938.41 285.88 937.8 285.62C936.14 284.92 935.63 282.86 934.52 281.44C932.3 278.58 927.89 278.64 924.52 280C923.053 280.703 921.551 281.331 920.02 281.88C919.253 282.15 918.439 282.259 917.628 282.199C916.818 282.138 916.028 281.911 915.31 281.53C914.65 281.11 914.12 280.53 913.44 280.11C911.18 278.75 908.22 280.11 906.26 281.86C904.3 283.61 902.73 285.96 900.26 287.03C899.15 287.53 897.78 287.83 897.26 288.91C897.003 289.498 896.893 290.14 896.94 290.78C896.94 294.67 897.4 298.62 896.59 302.43C896.07 304.88 894.35 307.66 891.86 307.36C891.55 307.314 891.245 307.237 890.95 307.13C890.2 303.125 890.295 299.007 891.226 295.041C892.158 291.074 893.907 287.345 896.361 284.093C898.815 280.84 901.921 278.135 905.479 276.15C909.038 274.166 912.972 272.945 917.029 272.567C921.086 272.188 925.177 272.66 929.041 273.952C932.906 275.244 936.458 277.328 939.471 280.071C942.485 282.814 944.893 286.154 946.542 289.88C948.192 293.606 949.046 297.635 949.05 301.71L949.03 301.73Z" fill="black"/>
<path d="M889.64 305.47C890.39 305.64 891.1 306.03 891.87 306.13C894.36 306.43 896.08 303.65 896.6 301.2C897.41 297.39 896.99 293.44 896.96 289.55C896.904 288.91 897.011 288.267 897.27 287.68C897.84 286.6 899.21 286.3 900.27 285.8C902.69 284.72 904.27 282.42 906.27 280.63C908.27 278.84 911.18 277.52 913.44 278.88C914.11 279.28 914.65 279.88 915.31 280.3C916.032 280.675 916.823 280.9 917.634 280.96C918.445 281.02 919.261 280.915 920.03 280.65C921.58 280.19 923.03 279.38 924.52 278.77C927.86 277.41 932.28 277.36 934.52 280.2C935.63 281.63 936.14 283.68 937.8 284.38C938.41 284.64 939.1 284.67 939.73 284.9C941.84 285.69 942.38 288.42 942.29 290.67C942.2 292.92 941.9 295.45 943.29 297.19C944.45 298.61 946.65 299.35 946.9 301.19C947.06 302.37 946.28 303.47 946.15 304.65C946.12 305.089 946.178 305.529 946.319 305.945C946.461 306.361 946.684 306.745 946.975 307.074C947.266 307.403 947.62 307.672 948.016 307.863C948.411 308.055 948.841 308.166 949.28 308.19C951.88 308.19 953.49 305.28 955.92 304.35C956.92 303.96 958.13 303.9 958.92 303.11C959.214 302.73 959.421 302.291 959.528 301.823C959.635 301.355 959.639 300.87 959.54 300.4C959.05 296.57 955.98 293.24 956.31 289.4C956.62 285.72 960.03 282.51 959.31 278.89C958.943 277.555 958.257 276.33 957.31 275.32C956.238 273.867 954.841 272.686 953.23 271.87C951.84 271.27 950.23 271.13 948.96 270.4C945.18 268.33 945.19 262.93 942.96 259.25C942.003 257.729 940.646 256.501 939.037 255.7C937.428 254.899 935.63 254.557 933.84 254.71C931.03 254.99 928.48 256.48 925.7 256.98C921.89 257.66 918.03 256.41 914.42 254.98C910.81 253.55 907.16 251.98 903.29 251.98C899.42 251.98 895.23 253.98 894.05 257.64C893.43 259.64 893.74 261.78 893.26 263.79C892.42 267.36 889.26 269.9 886.08 271.67C883.89 272.89 881.26 274.29 881 276.78C880.83 278.36 881.7 279.78 882.25 281.31C883.185 283.898 883.164 286.736 882.19 289.31C881.46 291.2 880.24 292.86 879.5 294.74C878.975 296.016 878.726 297.389 878.771 298.768C878.816 300.147 879.153 301.501 879.76 302.74C880.226 303.643 880.872 304.442 881.658 305.087C882.444 305.732 883.353 306.209 884.33 306.49C886.3 306.96 887.54 305.01 889.64 305.47Z" fill="#3F3D56"/>
<g opacity="0.1">
<path opacity="0.1" d="M896.6 299.02C896.08 301.47 894.35 304.25 891.86 303.95C891.09 303.85 890.39 303.46 889.63 303.29C887.54 302.83 886.3 304.79 884.33 304.29C883.352 304.009 882.441 303.532 881.653 302.887C880.866 302.242 880.218 301.444 879.75 300.54C879.227 299.522 878.911 298.411 878.82 297.27C878.621 299.041 878.944 300.831 879.75 302.42C880.218 303.324 880.866 304.122 881.653 304.767C882.441 305.412 883.352 305.889 884.33 306.17C886.33 306.63 887.54 304.67 889.63 305.17C890.362 305.425 891.106 305.642 891.86 305.82C894.35 306.13 896.08 303.35 896.6 300.9C897.01 298.735 897.171 296.531 897.08 294.33C897.07 295.905 896.91 297.476 896.6 299.02V299.02Z" fill="black"/>
<path opacity="0.1" d="M882.9 283.96C883.027 282.321 882.802 280.674 882.24 279.13C881.788 278.103 881.404 277.047 881.09 275.97C881.047 276.138 881.014 276.308 880.99 276.48C880.82 278.05 881.7 279.48 882.24 281.01C882.589 281.96 882.811 282.952 882.9 283.96V283.96Z" fill="black"/>
<path opacity="0.1" d="M959.3 278.69C958.83 281.53 956.53 284.2 956.3 287.19C956.245 287.702 956.245 288.218 956.3 288.73C956.8 285.24 959.89 282.15 959.3 278.69Z" fill="black"/>
<path opacity="0.1" d="M959.47 299.79C959.385 300.208 959.188 300.595 958.9 300.91C958.16 301.7 956.9 301.76 955.9 302.15C953.47 303.08 951.9 306.02 949.26 305.99C948.584 305.952 947.936 305.709 947.4 305.295C946.865 304.881 946.467 304.314 946.26 303.67C946.199 303.887 946.152 304.107 946.12 304.33C946.092 304.768 946.15 305.207 946.293 305.622C946.435 306.037 946.658 306.419 946.949 306.748C947.24 307.076 947.593 307.343 947.988 307.534C948.383 307.725 948.812 307.836 949.25 307.86C951.86 307.86 953.46 304.95 955.89 304.03C956.89 303.64 958.11 303.58 958.89 302.79C959.184 302.41 959.391 301.971 959.498 301.503C959.605 301.035 959.609 300.55 959.51 300.08C959.5 299.96 959.48 299.88 959.47 299.79Z" fill="black"/>
<path opacity="0.1" d="M946.93 298.96C946.68 297.14 944.48 296.4 943.32 294.96C942.609 294.014 942.223 292.863 942.22 291.68C942.14 293.54 942.17 295.44 943.32 296.84C944.47 298.24 946.22 298.84 946.78 300.28C946.922 299.855 946.973 299.406 946.93 298.96V298.96Z" fill="black"/>
<path opacity="0.1" d="M942.28 288.49C942.36 286.24 941.82 283.49 939.71 282.72C939.09 282.49 938.4 282.46 937.79 282.21C936.13 281.51 935.61 279.45 934.51 278.03C932.28 275.18 927.87 275.23 924.51 276.59C923.01 277.2 921.58 278.01 920.02 278.47C919.253 278.74 918.439 278.849 917.628 278.789C916.818 278.728 916.028 278.501 915.31 278.12C914.65 277.7 914.11 277.12 913.44 276.7C911.17 275.34 908.21 276.7 906.26 278.45C904.31 280.2 902.73 282.54 900.26 283.62C899.14 284.12 897.78 284.42 897.2 285.5C896.946 286.089 896.839 286.731 896.89 287.37C896.89 287.76 896.89 288.15 896.89 288.54C896.903 288.137 897.002 287.742 897.18 287.38C897.76 286.3 899.12 286 900.24 285.5C902.66 284.42 904.24 282.12 906.24 280.33C908.24 278.54 911.15 277.22 913.42 278.58C914.09 278.98 914.63 279.58 915.29 279.99C916.007 280.373 916.797 280.602 917.608 280.662C918.419 280.723 919.234 280.613 920 280.34C921.528 279.796 923.027 279.172 924.49 278.47C927.84 277.11 932.25 277.05 934.49 279.9C935.59 281.32 936.11 283.38 937.77 284.08C938.38 284.34 939.07 284.37 939.69 284.6C941.4 285.24 942.08 287.16 942.23 289.06L942.28 288.49Z" fill="black"/>
</g>
<g opacity="0.1">
<path opacity="0.1" d="M893.03 298.96C893.087 297.3 893.682 295.704 894.724 294.411C895.766 293.118 897.2 292.198 898.81 291.79C903.269 290.7 907.947 290.912 912.29 292.4C921.78 295.54 911.09 306.84 911.09 306.84C911.09 306.84 903.98 313.84 897.35 308.95C895.392 307.47 894.021 305.344 893.48 302.95C893.155 301.645 893.004 300.304 893.03 298.96V298.96Z" fill="black"/>
<path opacity="0.1" d="M945.2 298.96C945.142 297.299 944.546 295.702 943.502 294.408C942.458 293.115 941.022 292.196 939.41 291.79C934.954 290.702 930.279 290.914 925.94 292.4C916.45 295.54 927.14 306.84 927.14 306.84C927.14 306.84 934.24 313.84 940.88 308.95C942.838 307.47 944.209 305.344 944.75 302.95C945.075 301.646 945.226 300.304 945.2 298.96Z" fill="black"/>
<path opacity="0.1" d="M910.5 291.48V291.95H927.83V291.39L910.5 291.48Z" fill="black"/>
<path opacity="0.1" d="M916.03 296.49H916.58V294.9C916.58 294.9 918.34 293.53 921.26 294.9V296.32H922.26V295.39H921.77C921.77 295.39 921.97 293.46 918.71 293.77C918.71 293.77 916.09 293.52 916.15 295.18H915.55L916.03 296.49Z" fill="black"/>
</g>
<path d="M893.03 298.31C893.087 296.65 893.682 295.054 894.724 293.761C895.766 292.468 897.2 291.548 898.81 291.14C903.27 290.057 907.946 290.269 912.29 291.75C921.78 294.9 911.09 306.19 911.09 306.19C911.09 306.19 903.98 313.19 897.35 308.3C895.388 306.824 894.016 304.696 893.48 302.3C893.154 300.996 893.003 299.654 893.03 298.31V298.31Z" fill="#6C63FF"/>
<path d="M945.2 298.31C945.142 296.649 944.546 295.052 943.502 293.758C942.458 292.465 941.022 291.546 939.41 291.14C934.953 290.057 930.28 290.269 925.94 291.75C916.45 294.9 927.14 306.19 927.14 306.19C927.14 306.19 934.24 313.19 940.88 308.3C942.842 306.824 944.214 304.696 944.75 302.3C945.076 300.996 945.227 299.654 945.2 298.31Z" fill="#6C63FF"/>
<path d="M910.5 290.85V291.33H927.83V290.76L910.5 290.85Z" fill="#6C63FF"/>
<path d="M916.03 295.86H916.58V294.27C916.58 294.27 918.34 292.91 921.26 294.27V295.7H922.26V294.76H921.77C921.77 294.76 921.97 292.84 918.71 293.14C918.71 293.14 916.09 292.9 916.15 294.55H915.55L916.03 295.86Z" fill="#6C63FF"/>
<path d="M123.14 457.19H117.46V585.09H123.14V457.19Z" fill="#535461"/>
<path d="M158.84 584.7L158.48 590.46L157.98 598.59L157.77 601.98L157.27 610.12L157.05 613.51L156.55 621.64L150.82 714.11C150.576 718.09 148.822 721.826 145.918 724.558C143.014 727.289 139.177 728.81 135.19 728.81H105.41C101.424 728.81 97.5883 727.289 94.6856 724.557C91.7829 721.825 90.032 718.089 89.79 714.11L84.03 621.64L83.53 613.51L83.32 610.12L82.83 601.96L82.62 598.57L82.12 590.44L81.76 584.68C81.6917 583.575 81.8506 582.467 82.2268 581.425C82.6031 580.383 83.1887 579.43 83.9477 578.623C84.7066 577.816 85.6227 577.174 86.6396 576.735C87.6564 576.295 88.7524 576.069 89.86 576.07H150.75C151.859 576.069 152.956 576.296 153.974 576.736C154.992 577.177 155.908 577.821 156.667 578.63C157.425 579.439 158.009 580.396 158.383 581.44C158.757 582.484 158.913 583.593 158.84 584.7V584.7Z" fill="#3F3D56"/>
<path d="M158.48 590.46L157.98 598.59H82.61L82.11 590.46H158.48Z" fill="#9D9CB5"/>
<path d="M157.77 601.98L157.27 610.12H83.33L82.82 601.98H157.77Z" fill="#9D9CB5"/>
<path d="M157.05 613.51L156.55 621.64H84.05L83.54 613.51H157.05Z" fill="#9D9CB5"/>
<path d="M73.4399 505.13C106.52 529.06 120.3 566.5 120.3 566.5C120.3 566.5 80.4299 565.13 47.2999 541.2C14.1699 517.27 0.439941 479.83 0.439941 479.83C0.439941 479.83 40.3499 481.2 73.4399 505.13Z" fill="#6C63FF"/>
<path d="M0.48999 479.83C0.48999 479.83 41.87 502.83 55.14 521.83C68.41 540.83 120.3 566.51 120.3 566.51" stroke="#535461" stroke-width="2" stroke-miterlimit="10"/>
<path d="M94.79 456.96C112.79 469.96 120.3 490.36 120.3 490.36C120.3 490.36 98.6 489.62 80.59 476.59C62.58 463.56 55.09 443.19 55.09 443.19C55.09 443.19 76.79 443.88 94.79 456.96Z" fill="#6C63FF"/>
<path d="M55.09 443.14C55.09 443.14 77.61 455.64 84.83 465.99C92.05 476.34 120.3 490.31 120.3 490.31" stroke="#535461" stroke-width="2" stroke-miterlimit="10"/>
<path d="M146.47 489.28C125.78 512.01 121.41 541.71 121.41 541.71C121.41 541.71 150.57 534.56 171.25 511.83C191.93 489.1 196.31 459.39 196.31 459.39C196.31 459.39 167.15 466.54 146.47 489.28Z" fill="#6C63FF"/>
<path d="M196.31 459.39C196.31 459.39 169.37 482.69 162.52 498.75C155.67 514.81 121.41 541.75 121.41 541.75" stroke="#535461" stroke-width="2" stroke-miterlimit="10"/>
<g filter="url(#filter0_d)">
<path d="M379.168 492.816C384.64 492.816 389.368 493.848 393.352 495.912C397.384 497.928 400.456 500.832 402.568 504.624C404.728 508.416 405.808 512.88 405.808 518.016C405.808 523.152 404.728 527.616 402.568 531.408C400.456 535.152 397.384 538.032 393.352 540.048C389.368 542.016 384.64 543 379.168 543H363.544V492.816H379.168ZM379.168 537.6C385.648 537.6 390.592 535.896 394 532.488C397.408 529.032 399.112 524.208 399.112 518.016C399.112 511.776 397.384 506.904 393.928 503.4C390.52 499.896 385.6 498.144 379.168 498.144H370.096V537.6H379.168ZM424.602 492.816V543H418.05V492.816H424.602ZM455.281 543.504C451.969 543.504 448.993 542.928 446.353 541.776C443.761 540.576 441.721 538.944 440.233 536.88C438.745 534.768 437.977 532.344 437.929 529.608H444.913C445.153 531.96 446.113 533.952 447.793 535.584C449.521 537.168 452.017 537.96 455.281 537.96C458.401 537.96 460.849 537.192 462.625 535.656C464.449 534.072 465.361 532.056 465.361 529.608C465.361 527.688 464.833 526.128 463.777 524.928C462.721 523.728 461.401 522.816 459.817 522.192C458.233 521.568 456.097 520.896 453.409 520.176C450.097 519.312 447.433 518.448 445.417 517.584C443.449 516.72 441.745 515.376 440.305 513.552C438.913 511.68 438.217 509.184 438.217 506.064C438.217 503.328 438.913 500.904 440.305 498.792C441.697 496.68 443.641 495.048 446.137 493.896C448.681 492.744 451.585 492.168 454.849 492.168C459.553 492.168 463.393 493.344 466.369 495.696C469.393 498.048 471.097 501.168 471.481 505.056H464.281C464.041 503.136 463.033 501.456 461.257 500.016C459.481 498.528 457.129 497.784 454.201 497.784C451.465 497.784 449.233 498.504 447.505 499.944C445.777 501.336 444.913 503.304 444.913 505.848C444.913 507.672 445.417 509.16 446.425 510.312C447.481 511.464 448.753 512.352 450.241 512.976C451.777 513.552 453.913 514.224 456.649 514.992C459.961 515.904 462.625 516.816 464.641 517.728C466.657 518.592 468.385 519.96 469.825 521.832C471.265 523.656 471.985 526.152 471.985 529.32C471.985 531.768 471.337 534.072 470.041 536.232C468.745 538.392 466.825 540.144 464.281 541.488C461.737 542.832 458.737 543.504 455.281 543.504ZM512.443 543L491.779 520.104V543H485.227V492.816H491.779V516.072L512.515 492.816H520.795L498.043 517.944L521.011 543H512.443ZM554.68 543.504C550.024 543.504 545.776 542.424 541.936 540.264C538.096 538.056 535.048 535.008 532.792 531.12C530.584 527.184 529.48 522.768 529.48 517.872C529.48 512.976 530.584 508.584 532.792 504.696C535.048 500.76 538.096 497.712 541.936 495.552C545.776 493.344 550.024 492.24 554.68 492.24C559.384 492.24 563.656 493.344 567.496 495.552C571.336 497.712 574.36 500.736 576.568 504.624C578.776 508.512 579.88 512.928 579.88 517.872C579.88 522.816 578.776 527.232 576.568 531.12C574.36 535.008 571.336 538.056 567.496 540.264C563.656 542.424 559.384 543.504 554.68 543.504ZM554.68 537.816C558.184 537.816 561.328 537 564.112 535.368C566.944 533.736 569.152 531.408 570.736 528.384C572.368 525.36 573.184 521.856 573.184 517.872C573.184 513.84 572.368 510.336 570.736 507.36C569.152 504.336 566.968 502.008 564.184 500.376C561.4 498.744 558.232 497.928 554.68 497.928C551.128 497.928 547.96 498.744 545.176 500.376C542.392 502.008 540.184 504.336 538.552 507.36C536.968 510.336 536.176 513.84 536.176 517.872C536.176 521.856 536.968 525.36 538.552 528.384C540.184 531.408 542.392 533.736 545.176 535.368C548.008 537 551.176 537.816 554.68 537.816ZM643.034 493.176V543H636.482V505.848L619.922 543H615.314L598.682 505.776V543H592.13V493.176H599.186L617.618 534.36L636.05 493.176H643.034ZM664.298 492.816V543H657.746V492.816H664.298ZM718.52 543H711.968L685.616 503.04V543H679.064V492.744H685.616L711.968 532.632V492.744H718.52V543ZM761.657 492.816V498.144H739.841V515.064H757.553V520.392H739.841V543H733.289V492.816H761.657ZM795.923 543.504C791.267 543.504 787.019 542.424 783.179 540.264C779.339 538.056 776.291 535.008 774.035 531.12C771.827 527.184 770.723 522.768 770.723 517.872C770.723 512.976 771.827 508.584 774.035 504.696C776.291 500.76 779.339 497.712 783.179 495.552C787.019 493.344 791.267 492.24 795.923 492.24C800.627 492.24 804.899 493.344 808.739 495.552C812.579 497.712 815.603 500.736 817.811 504.624C820.019 508.512 821.123 512.928 821.123 517.872C821.123 522.816 820.019 527.232 817.811 531.12C815.603 535.008 812.579 538.056 808.739 540.264C804.899 542.424 800.627 543.504 795.923 543.504ZM795.923 537.816C799.427 537.816 802.571 537 805.355 535.368C808.187 533.736 810.395 531.408 811.979 528.384C813.611 525.36 814.427 521.856 814.427 517.872C814.427 513.84 813.611 510.336 811.979 507.36C810.395 504.336 808.211 502.008 805.427 500.376C802.643 498.744 799.475 497.928 795.923 497.928C792.371 497.928 789.203 498.744 786.419 500.376C783.635 502.008 781.427 504.336 779.795 507.36C778.211 510.336 777.419 513.84 777.419 517.872C777.419 521.856 778.211 525.36 779.795 528.384C781.427 531.408 783.635 533.736 786.419 535.368C789.251 537 792.419 537.816 795.923 537.816Z" fill="#6C63FF"/>
<path d="M393.352 495.912L392.892 496.8L392.898 496.803L392.905 496.806L393.352 495.912ZM402.568 504.624L401.694 505.111L401.699 505.119L402.568 504.624ZM402.568 531.408L401.699 530.913L401.697 530.917L402.568 531.408ZM393.352 540.048L393.795 540.945L393.799 540.942L393.352 540.048ZM363.544 543H362.544V544H363.544V543ZM363.544 492.816V491.816H362.544V492.816H363.544ZM394 532.488L394.707 533.195L394.712 533.19L394 532.488ZM393.928 503.4L393.211 504.097L393.216 504.102L393.928 503.4ZM370.096 498.144V497.144H369.096V498.144H370.096ZM370.096 537.6H369.096V538.6H370.096V537.6ZM379.168 493.816C384.515 493.816 389.078 494.824 392.892 496.8L393.812 495.024C389.658 492.872 384.765 491.816 379.168 491.816V493.816ZM392.905 496.806C396.764 498.736 399.684 501.501 401.694 505.111L403.442 504.137C401.228 500.163 398.004 497.12 393.799 495.018L392.905 496.806ZM401.699 505.119C403.759 508.735 404.808 513.023 404.808 518.016H406.808C406.808 512.737 405.697 508.097 403.437 504.129L401.699 505.119ZM404.808 518.016C404.808 523.009 403.759 527.297 401.699 530.913L403.437 531.903C405.697 527.935 406.808 523.295 406.808 518.016H404.808ZM401.697 530.917C399.688 534.478 396.768 537.222 392.905 539.154L393.799 540.942C398 538.842 401.224 535.826 403.439 531.899L401.697 530.917ZM392.909 539.151C389.091 541.037 384.521 542 379.168 542V544C384.759 544 389.645 542.995 393.795 540.945L392.909 539.151ZM379.168 542H363.544V544H379.168V542ZM364.544 543V492.816H362.544V543H364.544ZM363.544 493.816H379.168V491.816H363.544V493.816ZM379.168 538.6C385.819 538.6 391.054 536.848 394.707 533.195L393.293 531.781C390.13 534.944 385.477 536.6 379.168 536.6V538.6ZM394.712 533.19C398.352 529.499 400.112 524.395 400.112 518.016H398.112C398.112 524.021 396.464 528.565 393.288 531.786L394.712 533.19ZM400.112 518.016C400.112 511.587 398.327 506.436 394.64 502.698L393.216 504.102C396.441 507.372 398.112 511.965 398.112 518.016H400.112ZM394.645 502.703C390.995 498.95 385.781 497.144 379.168 497.144V499.144C385.419 499.144 390.046 500.842 393.211 504.097L394.645 502.703ZM379.168 497.144H370.096V499.144H379.168V497.144ZM369.096 498.144V537.6H371.096V498.144H369.096ZM370.096 538.6H379.168V536.6H370.096V538.6ZM424.602 492.816H425.602V491.816H424.602V492.816ZM424.602 543V544H425.602V543H424.602ZM418.05 543H417.05V544H418.05V543ZM418.05 492.816V491.816H417.05V492.816H418.05ZM423.602 492.816V543H425.602V492.816H423.602ZM424.602 542H418.05V544H424.602V542ZM419.05 543V492.816H417.05V543H419.05ZM418.05 493.816H424.602V491.816H418.05V493.816ZM446.353 541.776L445.933 542.683L445.943 542.688L445.953 542.693L446.353 541.776ZM440.233 536.88L439.415 537.456L439.422 537.465L440.233 536.88ZM437.929 529.608V528.608H436.911L436.929 529.626L437.929 529.608ZM444.913 529.608L445.908 529.506L445.816 528.608H444.913V529.608ZM447.793 535.584L447.096 536.301L447.107 536.311L447.117 536.321L447.793 535.584ZM462.625 535.656L463.279 536.412L463.281 536.411L462.625 535.656ZM463.777 524.928L463.026 525.589L463.026 525.589L463.777 524.928ZM459.817 522.192L459.45 523.122L459.45 523.122L459.817 522.192ZM453.409 520.176L453.668 519.21L453.661 519.208L453.409 520.176ZM445.417 517.584L445.015 518.5L445.023 518.503L445.417 517.584ZM440.305 513.552L439.503 514.149L439.511 514.16L439.52 514.172L440.305 513.552ZM440.305 498.792L441.14 499.342L441.14 499.342L440.305 498.792ZM446.137 493.896L445.724 492.985L445.718 492.988L446.137 493.896ZM466.369 495.696L465.749 496.481L465.755 496.485L466.369 495.696ZM471.481 505.056V506.056H472.585L472.476 504.958L471.481 505.056ZM464.281 505.056L463.289 505.18L463.398 506.056H464.281V505.056ZM461.257 500.016L460.615 500.783L460.621 500.788L460.627 500.793L461.257 500.016ZM447.505 499.944L448.132 500.723L448.139 500.718L448.145 500.712L447.505 499.944ZM446.425 510.312L445.672 510.971L445.68 510.979L445.688 510.988L446.425 510.312ZM450.241 512.976L449.854 513.898L449.872 513.906L449.89 513.912L450.241 512.976ZM456.649 514.992L456.379 515.955L456.384 515.956L456.649 514.992ZM464.641 517.728L464.229 518.639L464.238 518.643L464.247 518.647L464.641 517.728ZM469.825 521.832L469.032 522.442L469.04 522.452L469.825 521.832ZM470.041 536.232L470.898 536.746L470.898 536.746L470.041 536.232ZM464.281 541.488L463.814 540.604L464.281 541.488ZM455.281 542.504C452.086 542.504 449.249 541.949 446.753 540.859L445.953 542.693C448.737 543.907 451.852 544.504 455.281 544.504V542.504ZM446.773 540.869C444.318 539.732 442.42 538.203 441.044 536.295L439.422 537.465C441.022 539.685 443.204 541.42 445.933 542.683L446.773 540.869ZM441.05 536.304C439.685 534.366 438.974 532.139 438.929 529.59L436.929 529.626C436.98 532.549 437.805 535.17 439.416 537.456L441.05 536.304ZM437.929 530.608H444.913V528.608H437.929V530.608ZM443.918 529.71C444.182 532.293 445.246 534.504 447.096 536.301L448.49 534.867C446.98 533.4 446.124 531.627 445.908 529.506L443.918 529.71ZM447.117 536.321C449.091 538.131 451.865 538.96 455.281 538.96V536.96C452.169 536.96 449.951 536.205 448.469 534.847L447.117 536.321ZM455.281 538.96C458.561 538.96 461.269 538.151 463.279 536.412L461.971 534.9C460.429 536.233 458.241 536.96 455.281 536.96V538.96ZM463.281 536.411C465.327 534.634 466.361 532.341 466.361 529.608H464.361C464.361 531.771 463.571 533.51 461.969 534.901L463.281 536.411ZM466.361 529.608C466.361 527.496 465.775 525.685 464.528 524.267L463.026 525.589C463.891 526.571 464.361 527.88 464.361 529.608H466.361ZM464.528 524.267C463.36 522.941 461.905 521.94 460.184 521.262L459.45 523.122C460.897 523.692 462.082 524.515 463.026 525.589L464.528 524.267ZM460.184 521.262C458.549 520.618 456.373 519.935 453.668 519.21L453.15 521.142C455.821 521.857 457.917 522.518 459.45 523.122L460.184 521.262ZM453.661 519.208C450.374 518.351 447.763 517.501 445.811 516.665L445.023 518.503C447.103 519.395 449.82 520.273 453.157 521.144L453.661 519.208ZM445.819 516.668C444.013 515.875 442.437 514.639 441.09 512.932L439.52 514.172C441.053 516.113 442.885 517.565 445.015 518.5L445.819 516.668ZM441.107 512.955C439.881 511.306 439.217 509.041 439.217 506.064H437.217C437.217 509.327 437.945 512.054 439.503 514.149L441.107 512.955ZM439.217 506.064C439.217 503.507 439.864 501.278 441.14 499.342L439.47 498.242C437.962 500.53 437.217 503.149 437.217 506.064H439.217ZM441.14 499.342C442.421 497.399 444.214 495.885 446.556 494.804L445.718 492.988C443.068 494.211 440.973 495.961 439.47 498.242L441.14 499.342ZM446.55 494.807C448.944 493.723 451.703 493.168 454.849 493.168V491.168C451.467 491.168 448.418 491.765 445.724 492.985L446.55 494.807ZM454.849 493.168C459.383 493.168 462.989 494.299 465.749 496.481L466.989 494.911C463.797 492.389 459.723 491.168 454.849 491.168V493.168ZM465.755 496.485C468.558 498.665 470.128 501.533 470.486 505.154L472.476 504.958C472.066 500.803 470.228 497.431 466.983 494.907L465.755 496.485ZM471.481 504.056H464.281V506.056H471.481V504.056ZM465.273 504.932C464.996 502.71 463.824 500.81 461.887 499.239L460.627 500.793C462.242 502.102 463.086 503.562 463.289 505.18L465.273 504.932ZM461.899 499.249C459.9 497.574 457.3 496.784 454.201 496.784V498.784C456.958 498.784 459.062 499.482 460.615 500.783L461.899 499.249ZM454.201 496.784C451.284 496.784 448.809 497.556 446.865 499.176L448.145 500.712C449.657 499.452 451.646 498.784 454.201 498.784V496.784ZM446.878 499.165C444.878 500.776 443.913 503.051 443.913 505.848H445.913C445.913 503.557 446.676 501.896 448.132 500.723L446.878 499.165ZM443.913 505.848C443.913 507.865 444.475 509.603 445.672 510.971L447.178 509.653C446.359 508.717 445.913 507.479 445.913 505.848H443.913ZM445.688 510.988C446.845 512.25 448.237 513.22 449.854 513.898L450.628 512.054C449.269 511.484 448.117 510.678 447.162 509.636L445.688 510.988ZM449.89 513.912C451.465 514.503 453.632 515.184 456.379 515.955L456.919 514.029C454.194 513.264 452.089 512.601 450.592 512.04L449.89 513.912ZM456.384 515.956C459.67 516.861 462.279 517.757 464.229 518.639L465.053 516.817C462.971 515.875 460.252 514.947 456.914 514.028L456.384 515.956ZM464.247 518.647C466.094 519.439 467.688 520.695 469.032 522.442L470.618 521.222C469.082 519.225 467.22 517.745 465.035 516.809L464.247 518.647ZM469.04 522.452C470.298 524.045 470.985 526.296 470.985 529.32H472.985C472.985 526.008 472.232 523.267 470.61 521.212L469.04 522.452ZM470.985 529.32C470.985 531.581 470.389 533.708 469.184 535.718L470.898 536.746C472.285 534.436 472.985 531.955 472.985 529.32H470.985ZM469.184 535.718C467.994 537.7 466.22 539.333 463.814 540.604L464.748 542.372C467.43 540.955 469.496 539.084 470.898 536.746L469.184 535.718ZM463.814 540.604C461.44 541.858 458.607 542.504 455.281 542.504V544.504C458.867 544.504 462.034 543.806 464.748 542.372L463.814 540.604ZM512.443 543L511.7 543.67L511.998 544H512.443V543ZM491.779 520.104L492.521 519.434L490.779 517.503V520.104H491.779ZM491.779 543V544H492.779V543H491.779ZM485.227 543H484.227V544H485.227V543ZM485.227 492.816V491.816H484.227V492.816H485.227ZM491.779 492.816H492.779V491.816H491.779V492.816ZM491.779 516.072H490.779V518.696L492.525 516.738L491.779 516.072ZM512.515 492.816V491.816H512.067L511.768 492.15L512.515 492.816ZM520.795 492.816L521.536 493.487L523.049 491.816H520.795V492.816ZM498.043 517.944L497.302 517.273L496.69 517.948L497.306 518.62L498.043 517.944ZM521.011 543V544H523.284L521.748 542.324L521.011 543ZM513.185 542.33L492.521 519.434L491.036 520.774L511.7 543.67L513.185 542.33ZM490.779 520.104V543H492.779V520.104H490.779ZM491.779 542H485.227V544H491.779V542ZM486.227 543V492.816H484.227V543H486.227ZM485.227 493.816H491.779V491.816H485.227V493.816ZM490.779 492.816V516.072H492.779V492.816H490.779ZM492.525 516.738L513.261 493.482L511.768 492.15L491.032 515.406L492.525 516.738ZM512.515 493.816H520.795V491.816H512.515V493.816ZM520.054 492.145L497.302 517.273L498.784 518.615L521.536 493.487L520.054 492.145ZM497.306 518.62L520.274 543.676L521.748 542.324L498.78 517.268L497.306 518.62ZM521.011 542H512.443V544H521.011V542ZM541.936 540.264L541.438 541.131L541.446 541.136L541.936 540.264ZM532.792 531.12L531.92 531.609L531.924 531.616L531.927 531.622L532.792 531.12ZM532.792 504.696L531.925 504.199L531.923 504.202L532.792 504.696ZM541.936 495.552L542.427 496.424L542.435 496.419L541.936 495.552ZM567.496 495.552L566.998 496.419L567.006 496.424L567.496 495.552ZM576.568 504.624L577.438 504.13L577.438 504.13L576.568 504.624ZM567.496 540.264L567.987 541.136L567.995 541.131L567.496 540.264ZM564.112 535.368L563.613 534.502L563.607 534.505L564.112 535.368ZM570.736 528.384L569.856 527.909L569.851 527.92L570.736 528.384ZM570.736 507.36L569.851 507.824L569.855 507.832L569.86 507.841L570.736 507.36ZM564.184 500.376L563.679 501.239L563.679 501.239L564.184 500.376ZM545.176 500.376L545.682 501.239L545.682 501.239L545.176 500.376ZM538.552 507.36L537.672 506.885L537.67 506.89L538.552 507.36ZM538.552 528.384L537.666 528.848L537.672 528.859L538.552 528.384ZM545.176 535.368L544.671 536.231L544.677 536.234L545.176 535.368ZM554.68 542.504C550.186 542.504 546.108 541.463 542.427 539.392L541.446 541.136C545.444 543.385 549.863 544.504 554.68 544.504V542.504ZM542.435 539.397C538.749 537.278 535.827 534.357 533.657 530.618L531.927 531.622C534.27 535.659 537.443 538.834 541.438 541.131L542.435 539.397ZM533.665 530.631C531.547 526.857 530.48 522.612 530.48 517.872H528.48C528.48 522.924 529.621 527.511 531.92 531.609L533.665 530.631ZM530.48 517.872C530.48 513.132 531.547 508.913 533.662 505.19L531.923 504.202C529.621 508.255 528.48 512.82 528.48 517.872H530.48ZM533.66 505.193C535.829 501.409 538.749 498.492 542.427 496.424L541.446 494.68C537.444 496.932 534.268 500.111 531.925 504.199L533.66 505.193ZM542.435 496.419C546.115 494.303 550.19 493.24 554.68 493.24V491.24C549.859 491.24 545.437 492.385 541.438 494.685L542.435 496.419ZM554.68 493.24C559.221 493.24 563.319 494.304 566.998 496.419L567.995 494.685C563.994 492.384 559.548 491.24 554.68 491.24V493.24ZM567.006 496.424C570.685 498.493 573.579 501.385 575.699 505.118L577.438 504.13C575.142 500.087 571.988 496.931 567.987 494.68L567.006 496.424ZM575.699 505.118C577.813 508.84 578.88 513.082 578.88 517.872H580.88C580.88 512.774 579.74 508.184 577.438 504.13L575.699 505.118ZM578.88 517.872C578.88 522.662 577.813 526.904 575.699 530.626L577.438 531.614C579.74 527.56 580.88 522.97 580.88 517.872H578.88ZM575.699 530.626C573.578 534.36 570.682 537.279 566.998 539.397L567.995 541.131C571.991 538.833 575.143 535.656 577.438 531.614L575.699 530.626ZM567.006 539.392C563.326 541.463 559.225 542.504 554.68 542.504V544.504C559.544 544.504 563.987 543.385 567.987 541.136L567.006 539.392ZM554.68 538.816C558.346 538.816 561.668 537.96 564.618 536.231L563.607 534.505C560.989 536.04 558.022 536.816 554.68 536.816V538.816ZM564.612 536.234C567.616 534.503 569.954 532.032 571.622 528.848L569.851 527.92C568.35 530.784 566.273 532.969 563.613 534.502L564.612 536.234ZM571.616 528.859C573.339 525.667 574.184 521.995 574.184 517.872H572.184C572.184 521.717 571.398 525.053 569.856 527.909L571.616 528.859ZM574.184 517.872C574.184 513.703 573.34 510.028 571.613 506.879L569.86 507.841C571.397 510.644 572.184 513.976 572.184 517.872H574.184ZM571.622 506.896C569.957 503.716 567.645 501.246 564.69 499.513L563.679 501.239C566.292 502.77 568.348 504.956 569.851 507.824L571.622 506.896ZM564.69 499.513C561.738 497.783 558.392 496.928 554.68 496.928V498.928C558.073 498.928 561.063 499.705 563.679 501.239L564.69 499.513ZM554.68 496.928C550.969 496.928 547.623 497.783 544.671 499.513L545.682 501.239C548.298 499.705 551.288 498.928 554.68 498.928V496.928ZM544.671 499.513C541.718 501.244 539.385 503.711 537.672 506.885L539.432 507.835C540.983 504.961 543.066 502.772 545.682 501.239L544.671 499.513ZM537.67 506.89C535.995 510.037 535.176 513.708 535.176 517.872H537.176C537.176 513.972 537.942 510.635 539.435 507.83L537.67 506.89ZM535.176 517.872C535.176 521.991 535.996 525.659 537.667 528.848L539.438 527.92C537.941 525.061 537.176 521.721 537.176 517.872H535.176ZM537.672 528.859C539.385 532.033 541.718 534.5 544.671 536.231L545.682 534.505C543.066 532.972 540.983 530.783 539.432 527.909L537.672 528.859ZM544.677 536.234C547.672 537.96 551.014 538.816 554.68 538.816V536.816C551.339 536.816 548.345 536.04 545.676 534.502L544.677 536.234ZM643.034 493.176H644.034V492.176H643.034V493.176ZM643.034 543V544H644.034V543H643.034ZM636.482 543H635.482V544H636.482V543ZM636.482 505.848H637.482L635.569 505.441L636.482 505.848ZM619.922 543V544H620.571L620.835 543.407L619.922 543ZM615.314 543L614.401 543.408L614.665 544H615.314V543ZM598.682 505.776L599.595 505.368L597.682 505.776H598.682ZM598.682 543V544H599.682V543H598.682ZM592.13 543H591.13V544H592.13V543ZM592.13 493.176V492.176H591.13V493.176H592.13ZM599.186 493.176L600.099 492.767L599.834 492.176H599.186V493.176ZM617.618 534.36L616.705 534.769L617.618 536.808L618.531 534.769L617.618 534.36ZM636.05 493.176V492.176H635.402L635.137 492.767L636.05 493.176ZM642.034 493.176V543H644.034V493.176H642.034ZM643.034 542H636.482V544H643.034V542ZM637.482 543V505.848H635.482V543H637.482ZM635.569 505.441L619.009 542.593L620.835 543.407L637.395 506.255L635.569 505.441ZM619.922 542H615.314V544H619.922V542ZM616.227 542.592L599.595 505.368L597.769 506.184L614.401 543.408L616.227 542.592ZM597.682 505.776V543H599.682V505.776H597.682ZM598.682 542H592.13V544H598.682V542ZM593.13 543V493.176H591.13V543H593.13ZM592.13 494.176H599.186V492.176H592.13V494.176ZM598.273 493.585L616.705 534.769L618.531 533.951L600.099 492.767L598.273 493.585ZM618.531 534.769L636.963 493.585L635.137 492.767L616.705 533.951L618.531 534.769ZM636.05 494.176H643.034V492.176H636.05V494.176ZM664.298 492.816H665.298V491.816H664.298V492.816ZM664.298 543V544H665.298V543H664.298ZM657.746 543H656.746V544H657.746V543ZM657.746 492.816V491.816H656.746V492.816H657.746ZM663.298 492.816V543H665.298V492.816H663.298ZM664.298 542H657.746V544H664.298V542ZM658.746 543V492.816H656.746V543H658.746ZM657.746 493.816H664.298V491.816H657.746V493.816ZM718.52 543V544H719.52V543H718.52ZM711.968 543L711.134 543.551L711.43 544H711.968V543ZM685.616 503.04L686.451 502.489L684.616 499.707V503.04H685.616ZM685.616 543V544H686.616V543H685.616ZM679.064 543H678.064V544H679.064V543ZM679.064 492.744V491.744H678.064V492.744H679.064ZM685.616 492.744L686.451 492.193L686.154 491.744H685.616V492.744ZM711.968 532.632L711.134 533.183L712.968 535.96V532.632H711.968ZM711.968 492.744V491.744H710.968V492.744H711.968ZM718.52 492.744H719.52V491.744H718.52V492.744ZM718.52 542H711.968V544H718.52V542ZM712.803 542.449L686.451 502.489L684.782 503.591L711.134 543.551L712.803 542.449ZM684.616 503.04V543H686.616V503.04H684.616ZM685.616 542H679.064V544H685.616V542ZM680.064 543V492.744H678.064V543H680.064ZM679.064 493.744H685.616V491.744H679.064V493.744ZM684.782 493.295L711.134 533.183L712.803 532.081L686.451 492.193L684.782 493.295ZM712.968 532.632V492.744H710.968V532.632H712.968ZM711.968 493.744H718.52V491.744H711.968V493.744ZM717.52 492.744V543H719.52V492.744H717.52ZM761.657 492.816H762.657V491.816H761.657V492.816ZM761.657 498.144V499.144H762.657V498.144H761.657ZM739.841 498.144V497.144H738.841V498.144H739.841ZM739.841 515.064H738.841V516.064H739.841V515.064ZM757.553 515.064H758.553V514.064H757.553V515.064ZM757.553 520.392V521.392H758.553V520.392H757.553ZM739.841 520.392V519.392H738.841V520.392H739.841ZM739.841 543V544H740.841V543H739.841ZM733.289 543H732.289V544H733.289V543ZM733.289 492.816V491.816H732.289V492.816H733.289ZM760.657 492.816V498.144H762.657V492.816H760.657ZM761.657 497.144H739.841V499.144H761.657V497.144ZM738.841 498.144V515.064H740.841V498.144H738.841ZM739.841 516.064H757.553V514.064H739.841V516.064ZM756.553 515.064V520.392H758.553V515.064H756.553ZM757.553 519.392H739.841V521.392H757.553V519.392ZM738.841 520.392V543H740.841V520.392H738.841ZM739.841 542H733.289V544H739.841V542ZM734.289 543V492.816H732.289V543H734.289ZM733.289 493.816H761.657V491.816H733.289V493.816ZM783.179 540.264L782.68 541.131L782.688 541.136L783.179 540.264ZM774.035 531.12L773.162 531.609L773.166 531.616L773.17 531.622L774.035 531.12ZM774.035 504.696L773.167 504.199L773.165 504.202L774.035 504.696ZM783.179 495.552L783.669 496.424L783.677 496.419L783.179 495.552ZM808.739 495.552L808.24 496.419L808.248 496.424L808.739 495.552ZM817.811 504.624L818.68 504.13L818.68 504.13L817.811 504.624ZM808.739 540.264L809.229 541.136L809.237 541.131L808.739 540.264ZM805.355 535.368L804.855 534.502L804.849 534.505L805.355 535.368ZM811.979 528.384L811.098 527.909L811.093 527.92L811.979 528.384ZM811.979 507.36L811.093 507.824L811.097 507.832L811.102 507.841L811.979 507.36ZM805.427 500.376L804.921 501.239L804.921 501.239L805.427 500.376ZM786.419 500.376L786.924 501.239L786.924 501.239L786.419 500.376ZM779.795 507.36L778.915 506.885L778.912 506.89L779.795 507.36ZM779.795 528.384L778.909 528.848L778.915 528.859L779.795 528.384ZM786.419 535.368L785.913 536.231L785.919 536.234L786.419 535.368ZM795.923 542.504C791.428 542.504 787.351 541.463 783.669 539.392L782.688 541.136C786.687 543.385 791.105 544.504 795.923 544.504V542.504ZM783.677 539.397C779.991 537.278 777.069 534.357 774.899 530.618L773.17 531.622C775.512 535.659 778.686 538.834 782.68 541.131L783.677 539.397ZM774.907 530.631C772.79 526.857 771.723 522.612 771.723 517.872H769.723C769.723 522.924 770.864 527.511 773.162 531.609L774.907 530.631ZM771.723 517.872C771.723 513.132 772.79 508.913 774.904 505.19L773.165 504.202C770.864 508.255 769.723 512.82 769.723 517.872H771.723ZM774.902 505.193C777.071 501.409 779.991 498.492 783.669 496.424L782.688 494.68C778.686 496.932 775.51 500.111 773.167 504.199L774.902 505.193ZM783.677 496.419C787.358 494.303 791.432 493.24 795.923 493.24V491.24C791.101 491.24 786.68 492.385 782.68 494.685L783.677 496.419ZM795.923 493.24C800.463 493.24 804.561 494.304 808.24 496.419L809.237 494.685C805.236 492.384 800.79 491.24 795.923 491.24V493.24ZM808.248 496.424C811.927 498.493 814.821 501.385 816.941 505.118L818.68 504.13C816.384 500.087 813.23 496.931 809.229 494.68L808.248 496.424ZM816.941 505.118C819.055 508.84 820.123 513.082 820.123 517.872H822.123C822.123 512.774 820.982 508.184 818.68 504.13L816.941 505.118ZM820.123 517.872C820.123 522.662 819.055 526.904 816.941 530.626L818.68 531.614C820.982 527.56 822.123 522.97 822.123 517.872H820.123ZM816.941 530.626C814.82 534.36 811.924 537.279 808.24 539.397L809.237 541.131C813.233 538.833 816.385 535.656 818.68 531.614L816.941 530.626ZM808.248 539.392C804.568 541.463 800.467 542.504 795.923 542.504V544.504C800.786 544.504 805.229 543.385 809.229 541.136L808.248 539.392ZM795.923 538.816C799.589 538.816 802.91 537.96 805.86 536.231L804.849 534.505C802.231 536.04 799.265 536.816 795.923 536.816V538.816ZM805.854 536.234C808.858 534.503 811.196 532.032 812.864 528.848L811.093 527.92C809.593 530.784 807.515 532.969 804.855 534.502L805.854 536.234ZM812.859 528.859C814.581 525.667 815.427 521.995 815.427 517.872H813.427C813.427 521.717 812.64 525.053 811.099 527.909L812.859 528.859ZM815.427 517.872C815.427 513.703 814.582 510.028 812.855 506.879L811.102 507.841C812.639 510.644 813.427 513.976 813.427 517.872H815.427ZM812.864 506.896C811.199 503.716 808.887 501.246 805.932 499.513L804.921 501.239C807.534 502.77 809.59 504.956 811.093 507.824L812.864 506.896ZM805.932 499.513C802.98 497.783 799.634 496.928 795.923 496.928V498.928C799.315 498.928 802.305 499.705 804.921 501.239L805.932 499.513ZM795.923 496.928C792.211 496.928 788.865 497.783 785.913 499.513L786.924 501.239C789.54 499.705 792.53 498.928 795.923 498.928V496.928ZM785.913 499.513C782.961 501.244 780.628 503.711 778.915 506.885L780.675 507.835C782.226 504.961 784.309 502.772 786.924 501.239L785.913 499.513ZM778.912 506.89C777.237 510.037 776.419 513.708 776.419 517.872H778.419C778.419 513.972 779.184 510.635 780.677 507.83L778.912 506.89ZM776.419 517.872C776.419 521.991 777.238 525.659 778.909 528.848L780.68 527.92C779.183 525.061 778.419 521.721 778.419 517.872H776.419ZM778.915 528.859C780.628 532.033 782.961 534.5 785.913 536.231L786.924 534.505C784.309 532.972 782.226 530.783 780.675 527.909L778.915 528.859ZM785.919 536.234C788.914 537.96 792.256 538.816 795.923 538.816V536.816C792.581 536.816 789.587 536.04 786.918 534.502L785.919 536.234Z" fill="#6C63FF"/>
</g>
</g>
<defs>
<filter id="filter0_d" x="360.544" y="491.168" width="467.579" height="61.336" filterUnits="userSpaceOnUse" color-interpolation-filters="sRGB">
<feFlood flood-opacity="0" result="BackgroundImageFix"/>
<feColorMatrix in="SourceAlpha" type="matrix" values="0 0 0 0 0 0 0 0 0 0 0 0 0 0 0 0 0 0 127 0"/>
<feOffset dx="2" dy="4"/>
<feGaussianBlur stdDeviation="2"/>
<feColorMatrix type="matrix" values="0 0 0 0 0 0 0 0 0 0 0 0 0 0 0 0 0 0 0.25 0"/>
<feBlend mode="normal" in2="BackgroundImageFix" result="effect1_dropShadow"/>
<feBlend mode="normal" in="SourceGraphic" in2="effect1_dropShadow" result="shape"/>
</filter>
<linearGradient id="paint0_linear" x1="591.3" y1="646.08" x2="591.3" y2="107.75" gradientUnits="userSpaceOnUse">
<stop stop-color="#808080" stop-opacity="0.25"/>
<stop offset="0.54" stop-color="#808080" stop-opacity="0.12"/>
<stop offset="1" stop-color="#808080" stop-opacity="0.1"/>
</linearGradient>
<linearGradient id="paint1_linear" x1="184034" y1="483433" x2="184034" y2="163798" gradientUnits="userSpaceOnUse">
<stop stop-color="#808080" stop-opacity="0.25"/>
<stop offset="0.54" stop-color="#808080" stop-opacity="0.12"/>
<stop offset="1" stop-color="#808080" stop-opacity="0.1"/>
</linearGradient>
<clipPath id="clip0">
<rect width="1145.57" height="819.91" fill="white"/>
</clipPath>
</defs>
</svg>
